<svg width="20" height="20" viewBox="0 0 20 20" fill="none" xmlns="http://www.w3.org/2000/svg">
<path d="M4.16672 16.875C4.32505 16.875 4.48338 16.8167 4.60838 16.6917L16.275 5.02503C16.5167 4.78337 16.5167 4.38337 16.275 4.1417C16.0334 3.90003 15.6334 3.90003 15.3917 4.1417L3.72505 15.8084C3.48338 16.05 3.48338 16.45 3.72505 16.6917C3.85005 16.8167 4.00838 16.875 4.16672 16.875Z" fill="#6E5B2E"/>
<path d="M15.8333 13.7668C16.175 13.7668 16.4583 13.4835 16.4583 13.1418V4.5835C16.4583 4.24183 16.175 3.9585 15.8333 3.9585H7.27498C6.93331 3.9585 6.64998 4.24183 6.64998 4.5835C6.64998 4.92516 6.93331 5.2085 7.27498 5.2085H15.2083V13.1418C15.2083 13.4835 15.4916 13.7668 15.8333 13.7668Z" fill="#6E5B2E"/>
</svg>
