<svg width="29" height="30" viewBox="0 0 29 30" fill="none" xmlns="http://www.w3.org/2000/svg">
<path d="M14.3335 28.1171C17.8891 27.9551 25.5335 26.1727 27.6668 20.3394C17.0002 20.3394 14.3335 25.5245 14.3335 28.1171Z" stroke="#A4DD9E" stroke-width="2" stroke-linecap="round" stroke-linejoin="round"/>
<path d="M14.3335 28.1171C10.7779 27.9551 3.1335 26.1727 1.00016 20.3394C11.6668 20.3394 14.3335 25.5245 14.3335 28.1171Z" stroke="#A4DD9E" stroke-width="2" stroke-linecap="round" stroke-linejoin="round"/>
<path d="M14.3335 28.1172V16.4506M14.3335 2.83946C18.4033 2.90194 22.6835 1.49073 23.956 1.0348C24.1118 0.978945 24.2679 1.12451 24.2224 1.28373L23.2608 4.64924C23.2353 4.73858 23.2224 4.83105 23.2224 4.92397V8.45058C23.2224 12.8689 19.6406 16.4506 15.2223 16.4506H13.4446C9.0263 16.4506 5.44457 12.8689 5.44457 8.45057V4.92396C5.44457 4.83105 5.43162 4.73858 5.4061 4.64925L4.43803 1.26089C4.39377 1.10599 4.54022 0.962922 4.69386 1.01137C5.9961 1.42199 10.5792 2.78183 14.3335 2.83946Z" stroke="#A4DD9E" stroke-width="2" stroke-linecap="round"/>
</svg>
