<svg width="175" height="217" viewBox="0 0 175 217" fill="none" xmlns="http://www.w3.org/2000/svg">
<g filter="url(#filter0_i_232_308)">
<rect x="85.4906" y="70.6152" width="17" height="98" fill="#4A3516"/>
</g>
<path d="M78.5557 101.39C76.1947 93.3235 78.9599 73.3981 100.855 67.4401C122.75 61.4821 143.688 72.0111 156.38 80.213C148.309 98.4072 137.805 112.921 115.91 118.879C94.0151 124.837 80.9167 109.457 78.5557 101.39Z" fill="#489625"/>
<path fill-rule="evenodd" clip-rule="evenodd" d="M94.2391 203.326C94.2391 210.346 88.5487 216.036 81.5292 216.036C75.5327 216.036 70.3519 211.845 69.0996 205.981L60.0242 163.483C57.7649 152.903 65.8312 142.933 76.6493 142.933H77.2391C86.628 142.933 94.2391 150.544 94.2391 159.933V203.326ZM111.83 142.933C122.648 142.933 130.714 152.903 128.455 163.483L119.38 205.981C118.127 211.845 112.947 216.036 106.95 216.036C99.9305 216.036 94.2401 210.346 94.2401 203.326V159.933C94.2401 150.544 101.851 142.933 111.24 142.933H111.83Z" fill="#634D26"/>
<path d="M58.133 142.615C54.2428 142.615 51.3811 146.26 52.3044 150.039L54.7476 160.039C55.4039 162.725 57.811 164.615 60.5762 164.615H126.609C129.399 164.615 131.821 162.692 132.453 159.975L134.779 149.975C135.654 146.212 132.798 142.615 128.935 142.615H58.133Z" fill="#6F5735"/>
<path d="M121.879 142.933C127.556 142.933 131.817 148.12 130.715 153.688L119.78 208.936C119.065 212.544 116.208 215.27 112.69 215.898V216.036L111.724 216.014C111.529 216.027 111.334 216.036 111.136 216.036C110.791 216.036 110.452 216.017 110.119 215.979L100.485 215.764L102.331 206.886C102.349 206.453 102.396 206.014 102.48 205.573L113.032 150.252C113.842 146.005 117.556 142.933 121.879 142.933Z" fill="#3C2B11"/>
<path d="M112.911 142.933H131.247C134.561 142.933 136.697 145.562 136.018 148.805L133.997 158.464C133.318 161.708 130.081 164.337 126.768 164.337H108.432L112.911 142.933Z" fill="#8B6939"/>
<path d="M81.0445 68.6659C75.7398 75.3061 57.507 85.0558 39.484 71.6692C21.4611 58.2826 17.7305 35.7991 16.9829 21.0841C36.9407 16.4728 55.2876 15.9402 73.3106 29.3268C91.3336 42.7134 86.3492 62.0257 81.0445 68.6659Z" fill="#61B63C"/>
<path d="M105.796 71.4517C100.823 64.5767 96.6622 44.8781 115.322 32.3295C133.983 19.781 157.343 23.1112 172.122 26.8487C170.682 46.5885 165.692 63.6205 147.031 76.1691C128.371 88.7176 110.768 78.3267 105.796 71.4517Z" fill="#60BD37"/>
<path d="M92.1573 113.063C87.811 120.322 71.0772 132.313 51.375 121.345C31.6727 110.376 24.8882 88.5669 22.1269 74.0769C41.2759 66.9586 59.3883 64.0888 79.0905 75.057C98.7927 86.0252 96.5037 105.804 92.1573 113.063Z" fill="#3B8918"/>
<path d="M98.7238 86.5729C90.142 87.6706 70.0463 81.3418 66.7381 57.2951C63.43 33.2485 76.9203 13.0392 86.9651 1.1006C104.604 12.7114 118.154 26.249 121.462 50.2956C124.77 74.3422 107.306 85.4752 98.7238 86.5729Z" fill="#91DF6F"/>
<defs>
<filter id="filter0_i_232_308" x="85.4906" y="70.6152" width="17" height="98" filterUnits="userSpaceOnUse" color-interpolation-filters="sRGB">
<feFlood flood-opacity="0" result="BackgroundImageFix"/>
<feBlend mode="normal" in="SourceGraphic" in2="BackgroundImageFix" result="shape"/>
<feColorMatrix in="SourceAlpha" type="matrix" values="0 0 0 0 0 0 0 0 0 0 0 0 0 0 0 0 0 0 127 0" result="hardAlpha"/>
<feOffset dx="13"/>
<feComposite in2="hardAlpha" operator="arithmetic" k2="-1" k3="1"/>
<feColorMatrix type="matrix" values="0 0 0 0 0.384314 0 0 0 0 0.290196 0 0 0 0 0.141176 0 0 0 1 0"/>
<feBlend mode="normal" in2="shape" result="effect1_innerShadow_232_308"/>
</filter>
</defs>
</svg>
