<svg width="16" height="16" viewBox="0 0 16 16" fill="none" xmlns="http://www.w3.org/2000/svg">
<path d="M5.82668 1.16681H10.1733C13.4467 1.16681 14.8467 2.56681 14.8467 5.84015V5.92681C14.8467 8.88681 13.68 10.3135 11.0667 10.5601C10.8 10.5801 10.5467 10.3801 10.52 10.1068C10.4933 9.83348 10.6933 9.58681 10.9733 9.56015C13.0667 9.36681 13.8467 8.38015 13.8467 5.92015V5.83348C13.8467 3.12015 12.8867 2.16014 10.1733 2.16014H5.82668C3.11335 2.16014 2.15335 3.12015 2.15335 5.83348V5.92015C2.15335 8.39348 2.94668 9.38015 5.08001 9.56015C5.35335 9.58681 5.56001 9.82681 5.53335 10.1001C5.50668 10.3735 5.27335 10.5801 4.99335 10.5535C2.34001 10.3268 1.15335 8.89348 1.15335 5.91348V5.82681C1.15335 2.56681 2.55335 1.16681 5.82668 1.16681Z" fill="#075985"/>
<path d="M8 5.57984C8.27333 5.57984 8.5 5.8065 8.5 6.07984V14.6665C8.5 14.9398 8.27333 15.1665 8 15.1665C7.72667 15.1665 7.5 14.9398 7.5 14.6665V6.07984C7.5 5.79984 7.72667 5.57984 8 5.57984Z" fill="#075985"/>
<path d="M8.00002 4.83327C8.12669 4.83327 8.25336 4.87994 8.35336 4.97994L10.5867 7.21327C10.78 7.40661 10.78 7.72661 10.5867 7.91994C10.3934 8.11327 10.0734 8.11327 9.88002 7.91994L8.00002 6.03994L6.12002 7.91994C5.92669 8.11327 5.60669 8.11327 5.41336 7.91994C5.22002 7.72661 5.22002 7.40661 5.41336 7.21327L7.64669 4.97994C7.74669 4.87994 7.87336 4.83327 8.00002 4.83327Z" fill="#075985"/>
</svg>
