<svg width="44" height="46" viewBox="0 0 44 46" fill="none" xmlns="http://www.w3.org/2000/svg">
<path d="M23.9857 2.125C23.9857 0.951395 22.9784 0 21.7357 0C20.4931 0 19.4857 0.951395 19.4857 2.125V5.3125C19.4857 6.48611 20.4931 7.4375 21.7357 7.4375C22.9784 7.4375 23.9857 6.48611 23.9857 5.3125V2.125Z" fill="#F3A218"/>
<path fill-rule="evenodd" clip-rule="evenodd" d="M5.98573 23.375C5.98573 15.1598 13.0372 8.5 21.7357 8.5C30.4342 8.5 37.4857 15.1598 37.4857 23.375C37.4857 31.5902 30.4342 38.25 21.7357 38.25C13.0372 38.25 5.98573 31.5902 5.98573 23.375ZM21.7357 12.75C15.5225 12.75 10.4857 17.507 10.4857 23.375C10.4857 29.243 15.5225 34 21.7357 34C27.9489 34 32.9857 29.243 32.9857 23.375C32.9857 17.507 27.9489 12.75 21.7357 12.75Z" fill="#F3A218"/>
<path d="M21.7357 38.25C22.9784 38.25 23.9857 39.2014 23.9857 40.375V43.5625C23.9857 44.7361 22.9784 45.6875 21.7357 45.6875C20.4931 45.6875 19.4857 44.7361 19.4857 43.5625V40.375C19.4857 39.2014 20.4931 38.25 21.7357 38.25Z" fill="#F3A218"/>
<path d="M36.3469 30.8125C36.9682 29.7961 38.3443 29.4479 39.4204 30.0347L42.3433 31.6284C43.4194 32.2152 43.7881 33.5149 43.1668 34.5312C42.5455 35.5476 41.1694 35.8959 40.0933 35.3091L37.1704 33.7153C36.0943 33.1285 35.7255 31.8289 36.3469 30.8125Z" fill="#F3A218"/>
<path d="M37.1704 13.0347C36.0943 13.6215 35.7255 14.9211 36.3469 15.9375C36.9682 16.9539 38.3443 17.3021 39.4204 16.7153L42.3433 15.1216C43.4194 14.5348 43.7881 13.2351 43.1668 12.2188C42.5455 11.2024 41.1694 10.8541 40.0933 11.4409L37.1704 13.0347Z" fill="#F3A218"/>
<path d="M3.37538 10.9097C2.29922 10.3229 0.923139 10.6711 0.301819 11.6875C-0.319502 12.7039 0.0492173 14.0035 1.12538 14.5903L4.04821 16.1841C5.12437 16.7709 6.50045 16.4226 7.12177 15.4062C7.74309 14.3899 7.37437 13.0902 6.29821 12.5034L3.37538 10.9097Z" fill="#F3A218"/>
<path d="M0.301819 35.0625C-0.319502 34.0461 0.0492172 32.7465 1.12538 32.1597L4.04821 30.5659C5.12437 29.9791 6.50045 30.3274 7.12177 31.3438C7.74309 32.3601 7.37437 33.6598 6.29821 34.2466L3.37538 35.8403C2.29922 36.4271 0.923139 36.0789 0.301819 35.0625Z" fill="#F3A218"/>
</svg>
