<svg width="236" height="224" viewBox="0 0 236 224" fill="none" xmlns="http://www.w3.org/2000/svg">
<path d="M117.911 0C121.979 0 125.281 3.12667 125.281 6.97917V20.9375C125.281 22.7885 124.504 24.5637 123.122 25.8725C121.74 27.1814 119.865 27.9167 117.911 27.9167C115.956 27.9167 114.082 27.1814 112.7 25.8725C111.317 24.5637 110.541 22.7885 110.541 20.9375V6.97917C110.541 3.12667 113.843 0 117.911 0ZM177.005 111.924C177.005 142.682 150.674 167.617 118.194 167.617C85.7077 167.617 59.3769 142.682 59.3769 111.924C59.3769 81.1593 85.7077 56.2242 118.194 56.2242C150.674 56.2242 177.005 81.1593 177.005 111.924ZM228.464 118.64C230.418 118.64 232.293 117.905 233.675 116.596C235.057 115.287 235.833 113.512 235.833 111.661C235.833 109.81 235.057 108.035 233.675 106.726C232.293 105.417 230.418 104.682 228.464 104.682H213.724C211.769 104.682 209.895 105.417 208.513 106.726C207.131 108.035 206.354 109.81 206.354 111.661C206.354 113.512 207.131 115.287 208.513 116.596C209.895 117.905 211.769 118.64 213.724 118.64H228.464ZM117.911 195.411C121.979 195.411 125.281 198.538 125.281 202.39V216.349C125.281 218.2 124.504 219.975 123.122 221.284C121.74 222.592 119.865 223.328 117.911 223.328C115.956 223.328 114.082 222.592 112.7 221.284C111.317 219.975 110.541 218.2 110.541 216.349V202.39C110.541 198.538 113.843 195.411 117.911 195.411ZM22.1094 118.64C24.064 118.64 25.9385 117.905 27.3206 116.596C28.7027 115.287 29.4792 113.512 29.4792 111.661C29.4792 109.81 28.7027 108.035 27.3206 106.726C25.9385 105.417 24.064 104.682 22.1094 104.682H7.36979C5.4152 104.682 3.54067 105.417 2.15856 106.726C0.776458 108.035 0 109.81 0 111.661C0 113.512 0.776458 115.287 2.15856 116.596C3.54067 117.905 5.4152 118.64 7.36979 118.64H22.1094ZM31.637 29.9546C32.3214 29.3063 33.1339 28.7921 34.0282 28.4412C34.9225 28.0904 35.881 27.9098 36.849 27.9098C37.8169 27.9098 38.7754 28.0904 39.6697 28.4412C40.564 28.7921 41.3765 29.3063 42.0609 29.9546L56.8005 43.9129C57.4849 44.5611 58.0278 45.3306 58.3982 46.1774C58.7687 47.0243 58.9593 47.932 58.9593 48.8486C58.9593 49.7652 58.7687 50.6729 58.3982 51.5198C58.0278 52.3666 57.4849 53.1361 56.8005 53.7843C56.116 54.4324 55.3035 54.9466 54.4092 55.2973C53.5149 55.6481 52.5565 55.8287 51.5885 55.8287C50.6206 55.8287 49.6621 55.6481 48.7679 55.2973C47.8736 54.9466 47.0611 54.4324 46.3766 53.7843L31.637 39.8259C30.9525 39.1778 30.4095 38.4084 30.039 37.5615C29.6685 36.7146 29.4778 35.8069 29.4778 34.8903C29.4778 33.9736 29.6685 33.0659 30.039 32.219C30.4095 31.3721 30.9525 30.6027 31.637 29.9546ZM42.0609 193.373C40.6786 194.682 38.8038 195.418 36.849 195.418C34.8941 195.418 33.0193 194.682 31.637 193.373C30.2548 192.064 29.4782 190.289 29.4782 188.438C29.4782 186.586 30.2548 184.811 31.637 183.502L46.3766 169.544C47.0611 168.895 47.8736 168.381 48.7679 168.03C49.6621 167.68 50.6206 167.499 51.5885 167.499C52.5565 167.499 53.5149 167.68 54.4092 168.03C55.3035 168.381 56.116 168.895 56.8005 169.544C57.4849 170.192 58.0278 170.961 58.3982 171.808C58.7687 172.655 58.9593 173.563 58.9593 174.479C58.9593 175.396 58.7687 176.303 58.3982 177.15C58.0278 177.997 57.4849 178.767 56.8005 179.415L42.0609 193.373ZM204.196 29.9546C202.814 28.647 200.941 27.9126 198.987 27.9126C197.034 27.9126 195.16 28.647 193.778 29.9546L179.039 43.9129C177.656 45.2219 176.88 46.9974 176.88 48.8486C176.88 50.6998 177.656 52.4752 179.039 53.7843C180.421 55.0933 182.296 55.8287 184.251 55.8287C186.206 55.8287 188.08 55.0933 189.463 53.7843L204.202 39.8259C204.887 39.1778 205.43 38.4084 205.8 37.5615C206.171 36.7146 206.361 35.8069 206.361 34.8903C206.361 33.9736 206.171 33.0659 205.8 32.219C205.43 31.3721 204.881 30.6027 204.196 29.9546ZM193.778 193.373C195.161 194.682 197.035 195.418 198.99 195.418C200.945 195.418 202.82 194.682 204.202 193.373C205.584 192.064 206.361 190.289 206.361 188.438C206.361 186.586 205.584 184.811 204.202 183.502L189.463 169.544C188.778 168.895 187.966 168.381 187.071 168.03C186.177 167.68 185.219 167.499 184.251 167.499C183.283 167.499 182.324 167.68 181.43 168.03C180.536 168.381 179.723 168.895 179.039 169.544C178.354 170.192 177.811 170.961 177.441 171.808C177.071 172.655 176.88 173.563 176.88 174.479C176.88 175.396 177.071 176.303 177.441 177.15C177.811 177.997 178.354 178.767 179.039 179.415L193.778 193.373Z" fill="#FFC700"/>
</svg>
