<svg width="354" height="272" viewBox="0 0 354 272" fill="none" xmlns="http://www.w3.org/2000/svg">
<path d="M142.855 129.2C117.753 117.89 78.0119 75.1709 103.765 0C134.999 11.3104 178.725 54.0291 142.855 129.2Z" fill="#217E17"/>
<path d="M161.86 125.605C185.756 128.82 233.13 116.807 241.987 53.6924C213.317 47.7872 162.839 58.0516 161.86 125.605Z" fill="#217E17"/>
<path d="M19.2205 81.3823C15.3227 81.3823 11.9934 79.9952 9.23247 77.2208C6.47155 74.4464 5.09109 71.1008 5.09109 67.184C5.09109 63.2672 6.47155 59.9215 9.23247 57.1471C11.9934 54.3727 15.3227 52.9855 19.2205 52.9855C23.1183 52.9855 26.4476 54.3727 29.2086 57.1471C31.9695 59.9215 33.3499 63.2672 33.3499 67.184C33.3499 71.1008 31.9695 74.4464 29.2086 77.2208C26.4476 79.9952 23.1183 81.3823 19.2205 81.3823ZM19.2205 122.998C15.3227 122.998 11.9934 121.611 9.23247 118.837C6.47155 116.062 5.09109 112.717 5.09109 108.8C5.09109 104.883 6.47155 101.538 9.23247 98.7631C11.9934 95.9887 15.3227 94.6016 19.2205 94.6016C23.1183 94.6016 26.4476 95.9887 29.2086 98.7631C31.9695 101.538 33.3499 104.883 33.3499 108.8C33.3499 112.717 31.9695 116.062 29.2086 118.837C26.4476 121.611 23.1183 122.998 19.2205 122.998Z" fill="#4C3D19"/>
<path d="M36.0544 224.4L51.8891 199.92H99.8805V224.4H36.0544ZM62.1208 224.4V175.44H72.8396V224.4H62.1208ZM72.8396 187.68L36.5416 150.96C38.6529 150.96 41.4138 150.96 44.8244 150.96C48.235 150.96 51.7267 150.715 55.2997 150.226C59.035 149.573 62.4456 148.43 65.5313 146.798C68.7795 145.166 71.2156 142.8 72.8396 139.699V187.68ZM36.5416 224.4C29.8829 224.4 23.7927 222.768 18.2708 219.504C12.749 216.24 8.28277 211.834 4.87222 206.285C1.62407 200.573 0 194.371 0 187.68C0 180.826 1.62407 174.624 4.87222 169.075C8.28277 163.526 12.749 159.12 18.2708 155.856C23.7927 152.592 29.8829 150.96 36.5416 150.96C43.2003 150.96 49.2906 152.592 54.8124 155.856C60.3343 159.12 64.7193 163.526 67.9674 169.075C71.2156 174.624 72.8396 180.826 72.8396 187.68C72.8396 194.371 71.2156 200.573 67.9674 206.285C64.7193 211.834 60.3343 216.24 54.8124 219.504C49.2906 222.768 43.2003 224.4 36.5416 224.4ZM36.5416 199.92C39.9522 199.92 42.7943 198.778 45.068 196.493C47.5041 194.045 48.7222 191.107 48.7222 187.68C48.7222 184.253 47.5041 181.397 45.068 179.112C42.7943 176.664 39.9522 175.44 36.5416 175.44C33.1311 175.44 30.2077 176.664 27.7716 179.112C25.4979 181.397 24.3611 184.253 24.3611 187.68C24.3611 191.107 25.4979 194.045 27.7716 196.493C30.2077 198.778 33.1311 199.92 36.5416 199.92Z" fill="#4C3D19"/>
<path d="M141.159 223.802V199.322H237.162V223.802H141.159ZM90.1455 224.4V199.92L141.159 199.322V155.747L163.084 154.523V222.333C163.084 224.291 164.708 221.517 163.084 222.333C161.46 223.149 159.836 223.638 158.212 223.802C156.587 223.802 155.775 223.802 155.775 223.802L90.1455 224.4Z" fill="#4C3D19"/>
<path d="M252.557 272C248.659 272 245.33 270.613 242.569 267.838C239.808 265.064 238.428 261.718 238.428 257.802C238.428 253.885 239.808 250.539 242.569 247.765C245.33 244.99 248.659 243.603 252.557 243.603C256.455 243.603 259.784 244.99 262.545 247.765C265.306 250.539 266.686 253.885 266.686 257.802C266.686 261.718 265.306 265.064 262.545 267.838C259.784 270.613 256.455 272 252.557 272Z" fill="#4C3D19"/>
<path d="M256.603 223.802V199.322H310.198V223.802H256.603ZM256.603 172.394V138.611L280.964 133.226V172.394H256.603ZM227.37 223.802V199.322H256.603V155.747L280.964 150.362V218.171C280.964 220.13 280.152 221.517 278.528 222.333C276.904 223.149 275.28 223.638 273.656 223.802C272.032 223.802 271.22 223.802 271.22 223.802H227.37Z" fill="#4C3D19"/>
<path d="M325.593 115.6C321.695 115.6 318.366 114.213 315.605 111.438C312.844 108.664 311.463 105.318 311.463 101.402C311.463 97.4848 312.844 94.1392 315.605 91.3648C318.366 88.5904 321.695 87.2032 325.593 87.2032C329.49 87.2032 332.82 88.5904 335.581 91.3648C338.342 94.1392 339.722 97.4848 339.722 101.402C339.722 105.318 338.342 108.664 335.581 111.438C332.82 114.213 329.49 115.6 325.593 115.6Z" fill="#4C3D19"/>
<path d="M300.406 223.802V199.322H329.639V155.747L354 150.362V218.171C354 220.13 353.188 221.517 351.564 222.333C349.94 223.149 348.316 223.638 346.692 223.802C345.068 223.802 344.256 223.802 344.256 223.802H300.406Z" fill="#4C3D19"/>
</svg>
