<svg width="46" height="35" viewBox="0 0 46 35" fill="none" xmlns="http://www.w3.org/2000/svg">
<path d="M18.5631 16.625C15.3013 15.1696 10.1371 9.67273 13.4836 0C17.5422 1.45539 23.2242 6.95227 18.5631 16.625Z" fill="#217E17"/>
<path d="M21.0327 16.1623C24.1378 16.5761 30.2937 15.0303 31.4446 6.90895C27.7191 6.14909 21.1598 7.46988 21.0327 16.1623Z" fill="#217E17"/>
<path d="M2.49758 10.472C1.99109 10.472 1.55846 10.2935 1.1997 9.93649C0.840936 9.57949 0.661554 9.14899 0.661554 8.64499C0.661554 8.14099 0.840936 7.71049 1.1997 7.35349C1.55846 6.99649 1.99109 6.81799 2.49758 6.81799C3.00407 6.81799 3.4367 6.99649 3.79546 7.35349C4.15423 7.71049 4.33361 8.14099 4.33361 8.64499C4.33361 9.14899 4.15423 9.57949 3.79546 9.93649C3.4367 10.2935 3.00407 10.472 2.49758 10.472ZM2.49758 15.827C1.99109 15.827 1.55846 15.6485 1.1997 15.2915C0.840936 14.9345 0.661554 14.504 0.661554 14C0.661554 13.496 0.840936 13.0655 1.1997 12.7085C1.55846 12.3515 1.99109 12.173 2.49758 12.173C3.00407 12.173 3.4367 12.3515 3.79546 12.7085C4.15423 13.0655 4.33361 13.496 4.33361 14C4.33361 14.504 4.15423 14.9345 3.79546 15.2915C3.4367 15.6485 3.00407 15.827 2.49758 15.827Z" fill="#4C3D19"/>
<path d="M4.68504 28.875L6.74265 25.725H12.9788V28.875H4.68504ZM8.07219 28.875V22.575H9.46504V28.875H8.07219ZM9.46504 24.15L4.74835 19.425C5.0227 19.425 5.38146 19.425 5.82464 19.425C6.26782 19.425 6.72155 19.3935 7.18583 19.3305C7.67122 19.2465 8.1144 19.0995 8.51537 18.8895C8.93744 18.6795 9.254 18.375 9.46504 17.976V24.15ZM4.74835 28.875C3.88309 28.875 3.0917 28.665 2.37417 28.245C1.65665 27.825 1.07629 27.258 0.633113 26.544C0.211038 25.809 0 25.011 0 24.15C0 23.268 0.211038 22.47 0.633113 21.756C1.07629 21.042 1.65665 20.475 2.37417 20.055C3.0917 19.635 3.88309 19.425 4.74835 19.425C5.6136 19.425 6.40499 19.635 7.12252 20.055C7.84005 20.475 8.40985 21.042 8.83193 21.756C9.254 22.47 9.46504 23.268 9.46504 24.15C9.46504 25.011 9.254 25.809 8.83193 26.544C8.40985 27.258 7.84005 27.825 7.12252 28.245C6.40499 28.665 5.6136 28.875 4.74835 28.875ZM4.74835 25.725C5.19153 25.725 5.56084 25.578 5.85629 25.284C6.17285 24.969 6.33113 24.591 6.33113 24.15C6.33113 23.709 6.17285 23.3415 5.85629 23.0475C5.56084 22.7325 5.19153 22.575 4.74835 22.575C4.30517 22.575 3.9253 22.7325 3.60874 23.0475C3.31329 23.3415 3.16556 23.709 3.16556 24.15C3.16556 24.591 3.31329 24.969 3.60874 25.284C3.9253 25.578 4.30517 25.725 4.74835 25.725Z" fill="#4C3D19"/>
<path d="M18.3427 28.798V25.648H30.8177V28.798H18.3427ZM11.7138 28.875V25.725L18.3427 25.648V20.041L21.5082 19.348V28.0735C21.5082 28.3255 21.4027 28.504 21.1917 28.609C20.9806 28.714 20.7696 28.777 20.5586 28.798C20.3475 28.798 20.242 28.798 20.242 28.798L11.7138 28.875Z" fill="#4C3D19"/>
<path d="M32.8181 35C32.3117 35 31.879 34.8215 31.5203 34.4645C31.1615 34.1075 30.9821 33.677 30.9821 33.173C30.9821 32.669 31.1615 32.2385 31.5203 31.8815C31.879 31.5245 32.3117 31.346 32.8181 31.346C33.3246 31.346 33.7573 31.5245 34.116 31.8815C34.4748 32.2385 34.6542 32.669 34.6542 33.173C34.6542 33.677 34.4748 34.1075 34.116 34.4645C33.7573 34.8215 33.3246 35 32.8181 35Z" fill="#4C3D19"/>
<path d="M33.3439 28.798V25.648H40.3082V28.798H33.3439ZM33.3439 22.183V17.836L36.5095 17.143V22.183H33.3439ZM29.5452 28.798V25.648H33.3439V20.041L36.5095 19.348V28.0735C36.5095 28.3255 36.404 28.504 36.1929 28.609C35.9819 28.714 35.7709 28.777 35.5598 28.798C35.3488 28.798 35.2433 28.798 35.2433 28.798H29.5452Z" fill="#4C3D19"/>
<path d="M42.3087 14.875C41.8022 14.875 41.3695 14.6965 41.0108 14.3395C40.652 13.9825 40.4726 13.552 40.4726 13.048C40.4726 12.544 40.652 12.1135 41.0108 11.7565C41.3695 11.3995 41.8022 11.221 42.3087 11.221C42.8151 11.221 43.2478 11.3995 43.6065 11.7565C43.9653 12.1135 44.1447 12.544 44.1447 13.048C44.1447 13.552 43.9653 13.9825 43.6065 14.3395C43.2478 14.6965 42.8151 14.875 42.3087 14.875Z" fill="#4C3D19"/>
<path d="M39.0358 28.798V25.648H42.8344V20.041L46 19.348V28.0735C46 28.3255 45.8945 28.504 45.6834 28.609C45.4724 28.714 45.2614 28.777 45.0503 28.798C44.8393 28.798 44.7338 28.798 44.7338 28.798H39.0358Z" fill="#4C3D19"/>
</svg>
