<svg width="32" height="41" viewBox="0 0 32 41" fill="none" xmlns="http://www.w3.org/2000/svg">
<path fill-rule="evenodd" clip-rule="evenodd" d="M19.6842 2.13679C18.3736 -0.712277 12.8123 -0.712248 11.5018 2.13679L0.738068 25.5362C-0.983746 29.2792 0.360644 33.406 4.21073 36.1959L5.42833 37.0782C11.0421 41.1462 20.1439 41.1462 25.7576 37.0782L26.9752 36.1959C30.8253 33.406 32.1697 29.2792 30.4479 25.5362L19.6842 2.13679ZM6.193 26.8538L15.593 6.41904L24.993 26.8538C26.026 29.0996 25.2194 31.5757 22.9094 33.2496L21.6918 34.1319C18.3235 36.5727 12.8625 36.5727 9.49419 34.1319L8.2766 33.2496C5.96654 31.5757 5.15991 29.0996 6.193 26.8538Z" fill="#1D91CC"/>
</svg>
